<svg width="387" height="57" viewBox="0 0 387 57" fill="none" xmlns="http://www.w3.org/2000/svg">
<path d="M29.52 56.96C25.2533 56.96 21.3067 56.2667 17.68 54.88C14.1067 53.44 10.9867 51.44 8.32 48.88C5.70667 46.32 3.65333 43.3067 2.16 39.84C0.72 36.3733 2.38419e-07 32.5867 2.38419e-07 28.48C2.38419e-07 24.3733 0.72 20.5867 2.16 17.12C3.65333 13.6533 5.73333 10.64 8.4 8.08001C11.0667 5.52001 14.1867 3.54667 17.76 2.16001C21.3867 0.720009 25.3333 8.58307e-06 29.6 8.58307e-06C33.8667 8.58307e-06 37.76 0.666675 41.28 2.00001C44.8533 3.33334 47.8933 5.36001 50.4 8.08001L46.72 11.84C44.3733 9.49334 41.7867 7.81334 38.96 6.80001C36.1333 5.78667 33.0933 5.28001 29.84 5.28001C26.3733 5.28001 23.1733 5.86667 20.24 7.04001C17.36 8.16001 14.8267 9.78668 12.64 11.92C10.5067 14 8.82667 16.4533 7.6 19.28C6.42667 22.0533 5.84 25.12 5.84 28.48C5.84 31.7867 6.42667 34.8533 7.6 37.68C8.82667 40.5067 10.5067 42.9867 12.64 45.12C14.8267 47.2 17.36 48.8267 20.24 50C23.1733 51.12 26.3467 51.68 29.76 51.68C32.96 51.68 35.9733 51.2 38.8 50.24C41.68 49.28 44.32 47.6533 46.72 45.36L50.08 49.84C47.4133 52.1867 44.2933 53.9733 40.72 55.2C37.1467 56.3733 33.4133 56.96 29.52 56.96ZM50.08 49.84L44.4 49.12V28.48H50.08V49.84ZM66.835 56.48V0.480007H105.235V5.60001H72.755V51.36H106.435V56.48H66.835ZM72.115 30.56V25.52H101.715V30.56H72.115ZM135.791 56.96C131.631 56.96 127.631 56.2933 123.791 54.96C120.004 53.5733 117.071 51.8133 114.991 49.68L117.311 45.12C119.284 47.04 121.924 48.6667 125.231 50C128.591 51.28 132.111 51.92 135.791 51.92C139.311 51.92 142.164 51.4933 144.351 50.64C146.591 49.7333 148.217 48.5333 149.231 47.04C150.297 45.5467 150.831 43.8933 150.831 42.08C150.831 39.8933 150.191 38.1333 148.911 36.8C147.684 35.4667 146.057 34.4267 144.031 33.68C142.004 32.88 139.764 32.1867 137.311 31.6C134.857 31.0133 132.404 30.4 129.951 29.76C127.497 29.0667 125.231 28.16 123.151 27.04C121.124 25.92 119.471 24.4533 118.191 22.64C116.964 20.7733 116.351 18.3467 116.351 15.36C116.351 12.5867 117.071 10.0533 118.511 7.76001C120.004 5.41334 122.271 3.54667 125.311 2.16001C128.351 0.720009 132.244 8.58307e-06 136.991 8.58307e-06C140.137 8.58307e-06 143.257 0.453342 146.351 1.36001C149.444 2.21334 152.111 3.41334 154.351 4.96001L152.351 9.68001C149.951 8.08001 147.391 6.90668 144.671 6.16001C142.004 5.41334 139.417 5.04001 136.911 5.04001C133.551 5.04001 130.777 5.49334 128.591 6.40001C126.404 7.30667 124.777 8.53334 123.711 10.08C122.697 11.5733 122.191 13.28 122.191 15.2C122.191 17.3867 122.804 19.1467 124.031 20.48C125.311 21.8133 126.964 22.8533 128.991 23.6C131.071 24.3467 133.337 25.0133 135.791 25.6C138.244 26.1867 140.671 26.8267 143.071 27.52C145.524 28.2133 147.764 29.12 149.791 30.24C151.871 31.3067 153.524 32.7467 154.751 34.56C156.031 36.3733 156.671 38.7467 156.671 41.68C156.671 44.4 155.924 46.9333 154.431 49.28C152.937 51.5733 150.644 53.44 147.551 54.88C144.511 56.2667 140.591 56.96 135.791 56.96ZM179.668 56.48V5.60001H159.988V0.480007H205.268V5.60001H185.588V56.48H179.668ZM238.424 56.96C234.211 56.96 230.291 56.2667 226.664 54.88C223.091 53.44 219.971 51.44 217.304 48.88C214.691 46.2667 212.638 43.2533 211.144 39.84C209.704 36.3733 208.984 32.5867 208.984 28.48C208.984 24.3733 209.704 20.6133 211.144 17.2C212.638 13.7333 214.691 10.72 217.304 8.16001C219.971 5.54667 223.091 3.54667 226.664 2.16001C230.238 0.720009 234.158 8.58307e-06 238.424 8.58307e-06C242.638 8.58307e-06 246.531 0.720009 250.104 2.16001C253.678 3.54667 256.771 5.52001 259.384 8.08001C262.051 10.64 264.104 13.6533 265.544 17.12C267.038 20.5867 267.784 24.3733 267.784 28.48C267.784 32.5867 267.038 36.3733 265.544 39.84C264.104 43.3067 262.051 46.32 259.384 48.88C256.771 51.44 253.678 53.44 250.104 54.88C246.531 56.2667 242.638 56.96 238.424 56.96ZM238.424 51.68C241.784 51.68 244.878 51.12 247.704 50C250.584 48.8267 253.064 47.2 255.144 45.12C257.278 42.9867 258.931 40.5333 260.104 37.76C261.278 34.9333 261.864 31.84 261.864 28.48C261.864 25.12 261.278 22.0533 260.104 19.28C258.931 16.4533 257.278 14 255.144 11.92C253.064 9.78668 250.584 8.16001 247.704 7.04001C244.878 5.86667 241.784 5.28001 238.424 5.28001C235.064 5.28001 231.944 5.86667 229.064 7.04001C226.184 8.16001 223.678 9.78668 221.544 11.92C219.464 14 217.811 16.4533 216.584 19.28C215.411 22.0533 214.824 25.12 214.824 28.48C214.824 31.7867 215.411 34.8533 216.584 37.68C217.811 40.5067 219.464 42.9867 221.544 45.12C223.678 47.2 226.184 48.8267 229.064 50C231.944 51.12 235.064 51.68 238.424 51.68ZM281.054 56.48V0.480007H302.014C309.107 0.480007 314.68 2.18667 318.734 5.60001C322.84 8.96001 324.894 13.6533 324.894 19.68C324.894 23.6267 323.96 27.04 322.094 29.92C320.28 32.7467 317.667 34.9333 314.254 36.48C310.84 37.9733 306.76 38.72 302.014 38.72H284.334L286.974 36V56.48H281.054ZM319.294 56.48L304.894 36.16H311.294L325.774 56.48H319.294ZM286.974 36.48L284.334 33.68H301.854C307.454 33.68 311.694 32.4533 314.574 30C317.507 27.5467 318.974 24.1067 318.974 19.68C318.974 15.2 317.507 11.7333 314.574 9.28001C311.694 6.82667 307.454 5.60001 301.854 5.60001H284.334L286.974 2.80001V36.48ZM329.986 56.48L354.066 23.28V32.72L331.026 0.480007H345.746L361.666 22.96L355.506 23.04L371.186 0.480007H385.266L362.386 32.16V22.88L386.626 56.48H371.666L355.186 32.72H361.106L344.866 56.48H329.986Z" fill="black"/>
</svg>
