<svg width="568" height="462" viewBox="0 0 568 462" fill="none" xmlns="http://www.w3.org/2000/svg">
<path d="M272.663 373V250L258.663 268.5H250.663L161.663 235V330L272.663 373Z" fill="#D9D9D9" stroke="#DED0C7"/>
<path d="M281.663 373V243.5L300.163 270.5H305.663L392.663 235L393.163 330L281.663 373Z" fill="#D9D9D9" stroke="#DED0C7"/>
<path d="M251.163 254L144.163 213L160.163 185L265.663 227.5L251.163 254Z" fill="#D9D9D9" stroke="#DED0C7"/>
<path d="M306.163 256.5L285.663 227L404.663 184L420.663 213.5L306.163 256.5Z" fill="#D9D9D9" stroke="#DED0C7"/>
<path d="M282.663 135L174.163 176.5L276.163 217.5L388.663 176.5L282.663 135Z" fill="#D9D9D9" stroke="#DED0C7"/>
<circle cx="280.663" cy="251.5" r="156.5" stroke="#3a4e9e" stroke-width="10"/>
<path d="M113.843 78.48C109.576 78.48 105.63 77.7867 102.003 76.4C98.4296 74.96 95.3096 72.96 92.643 70.4C90.0296 67.84 87.9763 64.8267 86.483 61.36C85.043 57.8933 84.323 54.1067 84.323 50C84.323 45.8933 85.043 42.1067 86.483 38.64C87.9763 35.1733 90.0563 32.16 92.723 29.6C95.3896 27.04 98.5096 25.0667 102.083 23.68C105.71 22.24 109.656 21.52 113.923 21.52C118.19 21.52 122.083 22.1867 125.603 23.52C129.176 24.8533 132.216 26.88 134.723 29.6L131.043 33.36C128.696 31.0133 126.11 29.3333 123.283 28.32C120.456 27.3067 117.416 26.8 114.163 26.8C110.696 26.8 107.496 27.3867 104.563 28.56C101.683 29.68 99.1496 31.3067 96.963 33.44C94.8296 35.52 93.1496 37.9733 91.923 40.8C90.7496 43.5733 90.163 46.64 90.163 50C90.163 53.3067 90.7496 56.3733 91.923 59.2C93.1496 62.0267 94.8296 64.5067 96.963 66.64C99.1496 68.72 101.683 70.3467 104.563 71.52C107.496 72.64 110.67 73.2 114.083 73.2C117.283 73.2 120.296 72.72 123.123 71.76C126.003 70.8 128.643 69.1733 131.043 66.88L134.403 71.36C131.736 73.7067 128.616 75.4933 125.043 76.72C121.47 77.8933 117.736 78.48 113.843 78.48ZM134.403 71.36L128.723 70.64V50H134.403V71.36ZM151.158 78V22H189.558V27.12H157.078V72.88H190.758V78H151.158ZM156.438 52.08V47.04H186.038V52.08H156.438ZM220.114 78.48C215.954 78.48 211.954 77.8133 208.114 76.48C204.327 75.0933 201.394 73.3333 199.314 71.2L201.634 66.64C203.607 68.56 206.247 70.1867 209.554 71.52C212.914 72.8 216.434 73.44 220.114 73.44C223.634 73.44 226.487 73.0133 228.674 72.16C230.914 71.2533 232.54 70.0533 233.554 68.56C234.62 67.0667 235.154 65.4133 235.154 63.6C235.154 61.4133 234.514 59.6533 233.234 58.32C232.007 56.9867 230.38 55.9467 228.354 55.2C226.327 54.4 224.087 53.7067 221.634 53.12C219.18 52.5333 216.727 51.92 214.274 51.28C211.82 50.5867 209.554 49.68 207.474 48.56C205.447 47.44 203.794 45.9733 202.514 44.16C201.287 42.2933 200.674 39.8667 200.674 36.88C200.674 34.1067 201.394 31.5733 202.834 29.28C204.327 26.9333 206.594 25.0667 209.634 23.68C212.674 22.24 216.567 21.52 221.314 21.52C224.46 21.52 227.58 21.9733 230.674 22.88C233.767 23.7333 236.434 24.9333 238.674 26.48L236.674 31.2C234.274 29.6 231.714 28.4267 228.994 27.68C226.327 26.9333 223.74 26.56 221.234 26.56C217.874 26.56 215.1 27.0133 212.914 27.92C210.727 28.8267 209.1 30.0533 208.034 31.6C207.02 33.0933 206.514 34.8 206.514 36.72C206.514 38.9067 207.127 40.6667 208.354 42C209.634 43.3333 211.287 44.3733 213.314 45.12C215.394 45.8667 217.66 46.5333 220.114 47.12C222.567 47.7067 224.994 48.3467 227.394 49.04C229.847 49.7333 232.087 50.64 234.114 51.76C236.194 52.8267 237.847 54.2667 239.074 56.08C240.354 57.8933 240.994 60.2667 240.994 63.2C240.994 65.92 240.247 68.4533 238.754 70.8C237.26 73.0933 234.967 74.96 231.874 76.4C228.834 77.7867 224.914 78.48 220.114 78.48ZM263.991 78V27.12H244.311V22H289.591V27.12H269.911V78H263.991ZM322.747 78.48C318.534 78.48 314.614 77.7867 310.987 76.4C307.414 74.96 304.294 72.96 301.627 70.4C299.014 67.7867 296.961 64.7733 295.467 61.36C294.027 57.8933 293.307 54.1067 293.307 50C293.307 45.8933 294.027 42.1333 295.467 38.72C296.961 35.2533 299.014 32.24 301.627 29.68C304.294 27.0667 307.414 25.0667 310.987 23.68C314.561 22.24 318.481 21.52 322.747 21.52C326.961 21.52 330.854 22.24 334.427 23.68C338.001 25.0667 341.094 27.04 343.707 29.6C346.374 32.16 348.427 35.1733 349.867 38.64C351.361 42.1067 352.107 45.8933 352.107 50C352.107 54.1067 351.361 57.8933 349.867 61.36C348.427 64.8267 346.374 67.84 343.707 70.4C341.094 72.96 338.001 74.96 334.427 76.4C330.854 77.7867 326.961 78.48 322.747 78.48ZM322.747 73.2C326.107 73.2 329.201 72.64 332.027 71.52C334.907 70.3467 337.387 68.72 339.467 66.64C341.601 64.5067 343.254 62.0533 344.427 59.28C345.601 56.4533 346.187 53.36 346.187 50C346.187 46.64 345.601 43.5733 344.427 40.8C343.254 37.9733 341.601 35.52 339.467 33.44C337.387 31.3067 334.907 29.68 332.027 28.56C329.201 27.3867 326.107 26.8 322.747 26.8C319.387 26.8 316.267 27.3867 313.387 28.56C310.507 29.68 308.001 31.3067 305.867 33.44C303.787 35.52 302.134 37.9733 300.907 40.8C299.734 43.5733 299.147 46.64 299.147 50C299.147 53.3067 299.734 56.3733 300.907 59.2C302.134 62.0267 303.787 64.5067 305.867 66.64C308.001 68.72 310.507 70.3467 313.387 71.52C316.267 72.64 319.387 73.2 322.747 73.2ZM365.377 78V22H386.337C393.43 22 399.003 23.7067 403.057 27.12C407.163 30.48 409.217 35.1733 409.217 41.2C409.217 45.1467 408.283 48.56 406.417 51.44C404.603 54.2667 401.99 56.4533 398.577 58C395.163 59.4933 391.083 60.24 386.337 60.24H368.657L371.297 57.52V78H365.377ZM403.617 78L389.217 57.68H395.617L410.097 78H403.617ZM371.297 58L368.657 55.2H386.177C391.777 55.2 396.017 53.9733 398.897 51.52C401.83 49.0667 403.297 45.6267 403.297 41.2C403.297 36.72 401.83 33.2533 398.897 30.8C396.017 28.3467 391.777 27.12 386.177 27.12H368.657L371.297 24.32V58ZM414.309 78L438.389 44.8V54.24L415.349 22H430.069L445.989 44.48L439.829 44.56L455.509 22H469.589L446.709 53.68V44.4L470.949 78H455.989L439.509 54.24H445.429L429.189 78H414.309Z" fill="black"/>
<path d="M200.313 461V426H215.463C218.596 426 221.296 426.517 223.563 427.55C225.83 428.55 227.58 430 228.813 431.9C230.046 433.8 230.663 436.067 230.663 438.7C230.663 441.3 230.046 443.55 228.813 445.45C227.58 447.35 225.83 448.817 223.563 449.85C221.296 450.85 218.596 451.35 215.463 451.35H204.813L208.413 447.7V461H200.313ZM208.413 448.6L204.813 444.75H215.013C217.513 444.75 219.38 444.217 220.613 443.15C221.846 442.083 222.463 440.6 222.463 438.7C222.463 436.767 221.846 435.267 220.613 434.2C219.38 433.133 217.513 432.6 215.013 432.6H204.813L208.413 428.75V448.6ZM236.446 461V426H251.396C256.262 426 260.046 427.133 262.746 429.4C265.446 431.633 266.796 434.733 266.796 438.7C266.796 441.3 266.179 443.55 264.946 445.45C263.712 447.317 261.962 448.75 259.696 449.75C257.429 450.75 254.729 451.25 251.596 451.25H240.946L244.546 447.7V461H236.446ZM258.696 461L249.946 448.3H258.596L267.446 461H258.696ZM244.546 448.6L240.946 444.8H251.146C253.646 444.8 255.512 444.267 256.746 443.2C257.979 442.1 258.596 440.6 258.596 438.7C258.596 436.767 257.979 435.267 256.746 434.2C255.512 433.133 253.646 432.6 251.146 432.6H240.946L244.546 428.75V448.6ZM273.213 461V426H299.663V432.5H281.263V454.5H300.313V461H273.213ZM280.663 446.4V440.1H297.513V446.4H280.663ZM318.258 461.6C315.458 461.6 312.775 461.233 310.208 460.5C307.642 459.733 305.575 458.75 304.008 457.55L306.758 451.45C308.258 452.517 310.025 453.4 312.058 454.1C314.125 454.767 316.208 455.1 318.308 455.1C319.908 455.1 321.192 454.95 322.158 454.65C323.158 454.317 323.892 453.867 324.358 453.3C324.825 452.733 325.058 452.083 325.058 451.35C325.058 450.417 324.692 449.683 323.958 449.15C323.225 448.583 322.258 448.133 321.058 447.8C319.858 447.433 318.525 447.1 317.058 446.8C315.625 446.467 314.175 446.067 312.708 445.6C311.275 445.133 309.958 444.533 308.758 443.8C307.558 443.067 306.575 442.1 305.808 440.9C305.075 439.7 304.708 438.167 304.708 436.3C304.708 434.3 305.242 432.483 306.308 430.85C307.408 429.183 309.042 427.867 311.208 426.9C313.408 425.9 316.158 425.4 319.458 425.4C321.658 425.4 323.825 425.667 325.958 426.2C328.092 426.7 329.975 427.467 331.608 428.5L329.108 434.65C327.475 433.717 325.842 433.033 324.208 432.6C322.575 432.133 320.975 431.9 319.408 431.9C317.842 431.9 316.558 432.083 315.558 432.45C314.558 432.817 313.842 433.3 313.408 433.9C312.975 434.467 312.758 435.133 312.758 435.9C312.758 436.8 313.125 437.533 313.858 438.1C314.592 438.633 315.558 439.067 316.758 439.4C317.958 439.733 319.275 440.067 320.708 440.4C322.175 440.733 323.625 441.117 325.058 441.55C326.525 441.983 327.858 442.567 329.058 443.3C330.258 444.033 331.225 445 331.958 446.2C332.725 447.4 333.108 448.917 333.108 450.75C333.108 452.717 332.558 454.517 331.458 456.15C330.358 457.783 328.708 459.1 326.508 460.1C324.342 461.1 321.592 461.6 318.258 461.6ZM350.143 461.6C347.343 461.6 344.66 461.233 342.093 460.5C339.526 459.733 337.46 458.75 335.893 457.55L338.643 451.45C340.143 452.517 341.91 453.4 343.943 454.1C346.01 454.767 348.093 455.1 350.193 455.1C351.793 455.1 353.076 454.95 354.043 454.65C355.043 454.317 355.776 453.867 356.243 453.3C356.71 452.733 356.943 452.083 356.943 451.35C356.943 450.417 356.576 449.683 355.843 449.15C355.11 448.583 354.143 448.133 352.943 447.8C351.743 447.433 350.41 447.1 348.943 446.8C347.51 446.467 346.06 446.067 344.593 445.6C343.16 445.133 341.843 444.533 340.643 443.8C339.443 443.067 338.46 442.1 337.693 440.9C336.96 439.7 336.593 438.167 336.593 436.3C336.593 434.3 337.126 432.483 338.193 430.85C339.293 429.183 340.926 427.867 343.093 426.9C345.293 425.9 348.043 425.4 351.343 425.4C353.543 425.4 355.71 425.667 357.843 426.2C359.976 426.7 361.86 427.467 363.493 428.5L360.993 434.65C359.36 433.717 357.726 433.033 356.093 432.6C354.46 432.133 352.86 431.9 351.293 431.9C349.726 431.9 348.443 432.083 347.443 432.45C346.443 432.817 345.726 433.3 345.293 433.9C344.86 434.467 344.643 435.133 344.643 435.9C344.643 436.8 345.01 437.533 345.743 438.1C346.476 438.633 347.443 439.067 348.643 439.4C349.843 439.733 351.16 440.067 352.593 440.4C354.06 440.733 355.51 441.117 356.943 441.55C358.41 441.983 359.743 442.567 360.943 443.3C362.143 444.033 363.11 445 363.843 446.2C364.61 447.4 364.993 448.917 364.993 450.75C364.993 452.717 364.443 454.517 363.343 456.15C362.243 457.783 360.593 459.1 358.393 460.1C356.226 461.1 353.476 461.6 350.143 461.6Z" fill="black"/>
<path d="M122.163 380L112.163 401" stroke="#645F59" stroke-width="10"/>
<path d="M144.163 131L127.163 103" stroke="#645F59" stroke-width="10"/>
<path d="M112.163 170L52.163 117" stroke="#645F59" stroke-width="10"/>
<path d="M92.163 207L57.163 194" stroke="#645F59" stroke-width="10"/>
<path d="M92.163 251L0.162956 248" stroke="#645F59" stroke-width="10"/>
<path d="M92.163 297L39.163 312" stroke="#645F59" stroke-width="10"/>
<path d="M104.639 339.484L45.6865 396.516" stroke="#645F59" stroke-width="10"/>
<path d="M424.163 377L438.163 408" stroke="#645F59" stroke-width="10"/>
<path d="M438.163 133L457.163 105" stroke="#645F59" stroke-width="10"/>
<path d="M457.163 166L522.163 113" stroke="#645F59" stroke-width="10"/>
<path d="M473.163 214L524.663 196" stroke="#645F59" stroke-width="10"/>
<path d="M473.125 257.319L567.141 259.733" stroke="#645F59" stroke-width="10"/>
<path d="M470.163 302.5L508.663 316" stroke="#645F59" stroke-width="10"/>
<path d="M452.163 337.961L455.468 334.219L515.468 387.259L512.163 391L508.858 394.741L448.858 341.702L452.163 337.961Z" fill="#645F59"/>
</svg>