<svg width="165" height="37" viewBox="0 0 165 37" fill="none" xmlns="http://www.w3.org/2000/svg">
<path d="M6.31809e-06 35.6V0.599996H15.15C18.2833 0.599996 20.9833 1.11666 23.25 2.15C25.5167 3.15 27.2667 4.6 28.5 6.5C29.7333 8.4 30.35 10.6667 30.35 13.3C30.35 15.9 29.7333 18.15 28.5 20.05C27.2667 21.95 25.5167 23.4167 23.25 24.45C20.9833 25.45 18.2833 25.95 15.15 25.95H4.50001L8.10001 22.3V35.6H6.31809e-06ZM8.10001 23.2L4.50001 19.35H14.7C17.2 19.35 19.0667 18.8167 20.3 17.75C21.5333 16.6833 22.15 15.2 22.15 13.3C22.15 11.3667 21.5333 9.86666 20.3 8.8C19.0667 7.73333 17.2 7.2 14.7 7.2H4.50001L8.10001 3.35V23.2ZM36.1328 35.6V0.599996H51.0828C55.9495 0.599996 59.7328 1.73333 62.4328 4C65.1328 6.23333 66.4828 9.33333 66.4828 13.3C66.4828 15.9 65.8662 18.15 64.6328 20.05C63.3995 21.9167 61.6495 23.35 59.3828 24.35C57.1162 25.35 54.4162 25.85 51.2828 25.85H40.6328L44.2328 22.3V35.6H36.1328ZM58.3828 35.6L49.6328 22.9H58.2828L67.1328 35.6H58.3828ZM44.2328 23.2L40.6328 19.4H50.8328C53.3328 19.4 55.1995 18.8667 56.4328 17.8C57.6662 16.7 58.2828 15.2 58.2828 13.3C58.2828 11.3667 57.6662 9.86666 56.4328 8.8C55.1995 7.73333 53.3328 7.2 50.8328 7.2H40.6328L44.2328 3.35V23.2ZM72.9004 35.6V0.599996H99.3504V7.1H80.9504V29.1H100V35.6H72.9004ZM80.3504 21V14.7H97.2004V21H80.3504ZM117.945 36.2C115.145 36.2 112.462 35.8333 109.895 35.1C107.329 34.3333 105.262 33.35 103.695 32.15L106.445 26.05C107.945 27.1167 109.712 28 111.745 28.7C113.812 29.3667 115.895 29.7 117.995 29.7C119.595 29.7 120.879 29.55 121.845 29.25C122.845 28.9167 123.579 28.4667 124.045 27.9C124.512 27.3333 124.745 26.6833 124.745 25.95C124.745 25.0167 124.379 24.2833 123.645 23.75C122.912 23.1833 121.945 22.7333 120.745 22.4C119.545 22.0333 118.212 21.7 116.745 21.4C115.312 21.0667 113.862 20.6667 112.395 20.2C110.962 19.7333 109.645 19.1333 108.445 18.4C107.245 17.6667 106.262 16.7 105.495 15.5C104.762 14.3 104.395 12.7667 104.395 10.9C104.395 8.9 104.929 7.08333 105.995 5.45C107.095 3.78333 108.729 2.46666 110.895 1.5C113.095 0.499997 115.845 -2.14577e-06 119.145 -2.14577e-06C121.345 -2.14577e-06 123.512 0.266664 125.645 0.799996C127.779 1.3 129.662 2.06666 131.295 3.1L128.795 9.25C127.162 8.31666 125.529 7.63333 123.895 7.2C122.262 6.73333 120.662 6.5 119.095 6.5C117.529 6.5 116.245 6.68333 115.245 7.05C114.245 7.41666 113.529 7.9 113.095 8.5C112.662 9.06666 112.445 9.73333 112.445 10.5C112.445 11.4 112.812 12.1333 113.545 12.7C114.279 13.2333 115.245 13.6667 116.445 14C117.645 14.3333 118.962 14.6667 120.395 15C121.862 15.3333 123.312 15.7167 124.745 16.15C126.212 16.5833 127.545 17.1667 128.745 17.9C129.945 18.6333 130.912 19.6 131.645 20.8C132.412 22 132.795 23.5167 132.795 25.35C132.795 27.3167 132.245 29.1167 131.145 30.75C130.045 32.3833 128.395 33.7 126.195 34.7C124.029 35.7 121.279 36.2 117.945 36.2ZM149.83 36.2C147.03 36.2 144.347 35.8333 141.78 35.1C139.213 34.3333 137.147 33.35 135.58 32.15L138.33 26.05C139.83 27.1167 141.597 28 143.63 28.7C145.697 29.3667 147.78 29.7 149.88 29.7C151.48 29.7 152.763 29.55 153.73 29.25C154.73 28.9167 155.463 28.4667 155.93 27.9C156.397 27.3333 156.63 26.6833 156.63 25.95C156.63 25.0167 156.263 24.2833 155.53 23.75C154.797 23.1833 153.83 22.7333 152.63 22.4C151.43 22.0333 150.097 21.7 148.63 21.4C147.197 21.0667 145.747 20.6667 144.28 20.2C142.847 19.7333 141.53 19.1333 140.33 18.4C139.13 17.6667 138.147 16.7 137.38 15.5C136.647 14.3 136.28 12.7667 136.28 10.9C136.28 8.9 136.813 7.08333 137.88 5.45C138.98 3.78333 140.613 2.46666 142.78 1.5C144.98 0.499997 147.73 -2.14577e-06 151.03 -2.14577e-06C153.23 -2.14577e-06 155.397 0.266664 157.53 0.799996C159.663 1.3 161.547 2.06666 163.18 3.1L160.68 9.25C159.047 8.31666 157.413 7.63333 155.78 7.2C154.147 6.73333 152.547 6.5 150.98 6.5C149.413 6.5 148.13 6.68333 147.13 7.05C146.13 7.41666 145.413 7.9 144.98 8.5C144.547 9.06666 144.33 9.73333 144.33 10.5C144.33 11.4 144.697 12.1333 145.43 12.7C146.163 13.2333 147.13 13.6667 148.33 14C149.53 14.3333 150.847 14.6667 152.28 15C153.747 15.3333 155.197 15.7167 156.63 16.15C158.097 16.5833 159.43 17.1667 160.63 17.9C161.83 18.6333 162.797 19.6 163.53 20.8C164.297 22 164.68 23.5167 164.68 25.35C164.68 27.3167 164.13 29.1167 163.03 30.75C161.93 32.3833 160.28 33.7 158.08 34.7C155.913 35.7 153.163 36.2 149.83 36.2Z" fill="black"/>
</svg>
